<?xml version="1.0" encoding="utf-8"?>
<!-- Generator: Adobe Illustrator 23.0.2, SVG Export Plug-In . SVG Version: 6.00 Build 0)  -->
<svg version="1.1" id="Layer_1" xmlns="http://www.w3.org/2000/svg" xmlns:xlink="http://www.w3.org/1999/xlink" x="0px" y="0px"
	 viewBox="0 0 100.3 100.3" style="enable-background:new 0 0 100.3 100.3;" xml:space="preserve">
<style type="text/css">
	.st0{fill:#F9F9F9;}
</style>
<g>
	<path class="st0" d="M35.4,62.5c-0.9,0-3.1,0-3.4,0c-0.8,0-1.5,0.7-1.5,1.5v14c0,0.8,0.7,1.5,1.5,1.5s1.5-0.7,1.5-1.5v-5.5h2.2
		c1.9,0,4.8-1.3,4.8-4.8C40.5,65.9,39.8,62.8,35.4,62.5z M35.7,69.5h-2.2v-4c0.7,0,1.4,0,1.7,0c1.5,0.1,2.3,0.4,2.3,2.2
		C37.5,69.2,36.4,69.5,35.7,69.5z"/>
	<path class="st0" d="M67.5,62.5h-6c-0.8,0-1.5,0.7-1.5,1.5v14c0,0.8,0.7,1.5,1.5,1.5S63,78.8,63,78v-5.5h4c0.8,0,1.5-0.7,1.5-1.5
		s-0.7-1.5-1.5-1.5h-4v-4h4.5c0.8,0,1.5-0.7,1.5-1.5S68.3,62.5,67.5,62.5z"/>
	<path class="st0" d="M46,62.5c-0.8,0-1.5,0.7-1.5,1.5v14c0,0.8,0.6,1.4,1.4,1.5c0.1,0,0.4,0,0.9,0c1.6,0,5.1-0.3,7.4-2.4
		c1.5-1.4,2.3-3.3,2.3-5.7C56.5,64,50.8,62.5,46,62.5z M52.2,74.9c-1.3,1.2-3.3,1.5-4.7,1.6V65.5c3.2,0.2,6,1.4,6,5.8
		C53.5,72.9,53.1,74,52.2,74.9z"/>
	<path class="st0" d="M79.6,29.9L61.3,11.4C61,11.2,60.6,11,60.2,11H20.5c-0.8,0-1.5,0.7-1.5,1.5v75c0,0.8,0.7,1.5,1.5,1.5h58
		c0.8,0,1.5-0.7,1.5-1.5V31C80,30.6,79.8,30.2,79.6,29.9z M62,16.4l12.9,13.1H62V16.4z M22,86V14h37v17c0,0.8,0.7,1.5,1.5,1.5H77V86
		H22z"/>
</g>
</svg>
